<svg width="2049" height="298" viewBox="0 0 2049 298" fill="none" xmlns="http://www.w3.org/2000/svg">
<path d="M0.8 14.2H198C203.333 14.2 208.4 14.3333 213.2 14.6C218 14.8666 224.667 15.8 233.2 17.4C242 18.7333 249.867 20.8667 256.8 23.8C264 26.4667 271.6 30.4667 279.6 35.8C287.6 41.1333 294.267 47.5333 299.6 55C305.2 62.2 309.733 71.6667 313.2 83.4C316.933 94.8667 318.8 107.8 318.8 122.2C318.8 136.333 317.067 149.267 313.6 161C310.4 172.733 306.133 182.6 300.8 190.6C295.467 198.333 289.067 205.267 281.6 211.4C274.133 217.267 266.8 221.933 259.6 225.4C252.4 228.6 244.8 231.267 236.8 233.4C229.067 235.267 222.4 236.6 216.8 237.4C211.2 237.933 206 238.2 201.2 238.2H94V295H0.8V14.2ZM195.2 155.4C219.733 155.4 232 145.267 232 125C232 120.467 231.333 116.6 230 113.4C228.933 110.2 227.2 107.667 224.8 105.8C222.4 103.667 220 101.933 217.6 100.6C215.2 99.2667 212.267 98.4667 208.8 98.2C205.6 97.6667 202.933 97.2667 200.8 97C198.667 96.7333 196.267 96.6 193.6 96.6H94V155.4H195.2ZM496.553 61.8C516.286 61.8 534.02 62.7333 549.753 64.6C565.486 66.2 581.22 69.6667 596.953 75C612.686 80.0667 625.753 86.8667 636.153 95.4C646.553 103.933 654.953 115.4 661.353 129.8C667.753 143.933 670.953 160.6 670.953 179.8C670.953 201.667 666.953 220.333 658.953 235.8C651.22 251.267 639.62 263.533 624.153 272.6C608.686 281.4 590.82 287.8 570.553 291.8C550.286 295.533 526.42 297.4 498.953 297.4C470.953 297.4 446.82 295.4 426.553 291.4C406.286 287.4 388.686 281 373.753 272.2C358.82 263.133 347.62 251 340.153 235.8C332.953 220.333 329.353 201.667 329.353 179.8C329.353 161.133 332.286 144.733 338.153 130.6C344.286 116.467 352.286 105.133 362.153 96.6C372.02 88.0667 384.286 81.1333 398.953 75.8C413.62 70.4667 428.686 66.8667 444.153 65C459.886 62.8667 477.353 61.8 496.553 61.8ZM499.753 231.8C523.22 231.8 541.086 227.933 553.353 220.2C565.886 212.2 572.153 198.733 572.153 179.8C572.153 169.4 569.753 160.6 564.953 153.4C560.153 145.933 553.753 140.467 545.753 137C538.02 133.533 530.286 131.133 522.553 129.8C515.086 128.2 507.086 127.4 498.553 127.4C492.42 127.4 486.286 127.933 480.153 129C474.02 129.8 467.753 131.4 461.353 133.8C454.953 136.2 449.353 139.267 444.553 143C440.02 146.733 436.153 151.667 432.953 157.8C430.02 163.667 428.553 170.333 428.553 177.8C428.553 196.2 434.286 209.8 445.753 218.6C457.486 227.4 475.486 231.8 499.753 231.8ZM944.728 15H1037.53V295H944.728V270.2C919.395 288.067 883.528 297 837.128 297C825.928 297 815.795 296.6 806.728 295.8C797.661 295.267 787.795 294.067 777.128 292.2C766.461 290.067 756.995 287.267 748.728 283.8C740.461 280.333 732.328 275.533 724.328 269.4C716.328 263.267 709.661 256.2 704.328 248.2C699.261 239.933 695.128 229.8 691.928 217.8C688.728 205.533 687.128 191.933 687.128 177C687.128 158.333 691.128 141.667 699.128 127C707.395 112.067 718.461 100.2 732.328 91.4C746.195 82.3333 761.795 75.5333 779.128 71C796.728 66.2 815.395 63.8 835.128 63.8C875.661 63.8 912.195 71.9333 944.728 88.2V15ZM944.728 197.8V166.2C936.195 143.267 904.595 131.8 849.928 131.8C849.661 131.8 849.128 131.8 848.328 131.8C844.861 131.8 842.061 131.8 839.928 131.8C838.061 131.8 834.995 132.067 830.728 132.6C826.728 132.867 823.261 133.4 820.328 134.2C817.661 135 814.328 136.2 810.328 137.8C806.595 139.133 803.395 141 800.728 143.4C798.328 145.8 795.928 148.6 793.528 151.8C791.128 155 789.261 159 787.928 163.8C786.861 168.6 786.328 173.933 786.328 179.8C786.328 211.533 809.395 227.4 855.528 227.4C881.395 227.4 900.728 225.533 913.528 221.8C926.595 217.8 936.995 209.8 944.728 197.8ZM1060.59 63.4H1153.79V295H1060.59V63.4ZM1060.59 0.199981H1153.79V45.4H1060.59V0.199981ZM1426.97 63H1518.97V295H1426.97V259.4C1403.51 282.867 1369.51 294.6 1324.97 294.6C1288.97 294.6 1260.71 290.733 1240.17 283C1219.91 275 1204.84 260.467 1194.97 239.4C1187.77 224.2 1182.97 205.4 1180.57 183C1178.17 160.6 1176.97 126.733 1176.97 81.4L1177.37 63H1269.37V139.4C1269.37 139.667 1269.37 140.067 1269.37 140.6C1269.37 147.267 1269.37 152.333 1269.37 155.8C1269.64 159.267 1270.17 164.2 1270.97 170.6C1272.04 177 1273.37 182.067 1274.97 185.8C1276.57 189.267 1278.97 193.4 1282.17 198.2C1285.64 202.733 1289.64 206.2 1294.17 208.6C1298.97 211 1304.97 213.133 1312.17 215C1319.64 216.867 1328.04 217.8 1337.37 217.8C1370.17 217.8 1400.04 205.667 1426.97 181.4V63ZM2035.44 110.6C2039.44 120.467 2042.38 133.933 2044.24 151C2046.38 167.8 2047.58 184.067 2047.84 199.8C2048.11 215.533 2048.24 241.267 2048.24 277V295H1955.04V217.8C1955.04 214.6 1955.18 210.2 1955.44 204.6C1955.71 198.733 1955.84 193.933 1955.84 190.2C1956.11 186.2 1955.98 181.533 1955.44 176.2C1955.18 170.6 1954.51 166.067 1953.44 162.6C1952.38 158.867 1950.64 155 1948.24 151C1946.11 146.733 1943.18 143.4 1939.44 141C1935.98 138.6 1931.44 136.6 1925.84 135C1920.51 133.4 1914.11 132.6 1906.64 132.6C1893.31 132.6 1880.11 135.8 1867.04 142.2C1853.98 148.333 1844.24 155.4 1837.84 163.4C1839.18 182.333 1839.84 220.2 1839.84 277V295H1747.84V217.8C1747.84 214.867 1747.98 210.467 1748.24 204.6C1748.51 198.467 1748.64 193.533 1748.64 189.8C1748.64 186.067 1748.38 181.4 1747.84 175.8C1747.58 170.2 1746.91 165.667 1745.84 162.2C1744.78 158.733 1743.04 155 1740.64 151C1738.24 146.733 1735.18 143.4 1731.44 141C1727.98 138.6 1723.44 136.6 1717.84 135C1712.24 133.4 1705.84 132.6 1698.64 132.6C1670.64 132.6 1649.04 143.4 1633.84 165V295H1540.64V63.4H1633.84V91.8C1648.24 81.9333 1662.64 74.4667 1677.04 69.4C1691.44 64.0667 1709.18 61.4 1730.24 61.4C1752.38 61.4 1771.04 64.2 1786.24 69.8C1801.71 75.1333 1813.84 85.6667 1822.64 101.4C1853.84 74.7333 1892.51 61.4 1938.64 61.4C1947.71 61.4 1955.71 61.8 1962.64 62.6C1969.58 63.1333 1976.91 64.4666 1984.64 66.6C1992.64 68.4667 1999.58 71.1333 2005.44 74.6C2011.31 78.0667 2016.91 82.8666 2022.24 89C2027.58 94.8667 2031.98 102.067 2035.44 110.6Z" fill="white"/>
</svg>
